<svg xmlns="http://www.w3.org/2000/svg" xml:space="preserve" fill="currentColor" aria-label="Follow WPCampus on LinkedIn" viewBox="0 0 200 200"><path d="M107.5 90.2v-.3c-.1.1-.1.2-.2.3h.2z"/><path d="M185.2 0H14.8C6.6 0 0 6.4 0 14.3v171.3c0 7.9 6.6 14.3 14.8 14.3h170.4c8.2 0 14.8-6.4 14.8-14.3V14.3C200 6.4 193.4 0 185.2 0zM60.9 167.4h-30V77.1h30v90.3zm-15-102.6h-.2c-10.1 0-16.6-6.9-16.6-15.6 0-8.9 6.7-15.6 17-15.6s16.6 6.7 16.8 15.6c-.1 8.6-6.6 15.6-17 15.6zm123.2 102.6h-30v-48.3c0-12.1-4.3-20.4-15.2-20.4-8.3 0-13.2 5.6-15.4 11-.8 1.9-1 4.6-1 7.3v50.4h-30s.4-81.8 0-90.3h30v12.8c4-6.2 11.1-14.9 27.1-14.9 19.7 0 34.6 12.9 34.6 40.6v51.8h-.1z"/></svg>