<svg xmlns="http://www.w3.org/2000/svg" xml:space="preserve" fill="currentColor" aria-label="Join WPCampus on Slack" viewBox="0 0 200 200"><path d="M42 126.4c0 11.6-9.4 21-21 21s-21-9.4-21-21 9.4-21 21-21h21v21zm10.6 0c0-11.6 9.4-21 21-21s21 9.4 21 21V179c0 11.6-9.4 21-21 21s-21-9.4-21-21v-52.6zm21-84.4c-11.6 0-21-9.4-21-21S62 0 73.6 0s21 9.4 21 21v21h-21zm0 10.6c11.6 0 21 9.4 21 21s-9.4 21-21 21H21c-11.6 0-21-9.4-21-21s9.4-21 21-21h52.6zm84.4 21c0-11.6 9.4-21 21-21s21 9.4 21 21-9.4 21-21 21h-21v-21zm-10.6 0c0 11.6-9.4 21-21 21s-21-9.4-21-21V21c0-11.6 9.4-21 21-21s21 9.4 21 21v52.6zm-21 84.4c11.6 0 21 9.4 21 21s-9.4 21-21 21-21-9.4-21-21v-21h21zm0-10.6c-11.6 0-21-9.4-21-21s9.4-21 21-21H179c11.6 0 21 9.4 21 21s-9.4 21-21 21h-52.6z"/></svg>